<svg xmlns="http://www.w3.org/2000/svg" fill="none" height="100%" overflow="visible" preserveAspectRatio="none" style="display: block;" viewBox="0 0 40 34" width="100%" aria-label="Wedding couple logo" role="img">
<g id="J&amp;J">
<path d="M2.772 23.472V0.504H5.22V23.256C5.22 26.28 4.8 28.632 3.96 30.312C3.12 31.992 1.836 33.216 0.108 33.984L0 33.804C0.96 33.132 1.656 31.992 2.088 30.384C2.544 28.8 2.772 26.496 2.772 23.472Z" fill="var(--fill-0, white)"></path>
<path d="M29.7765 25.704L26.3925 22.032C25.4085 23.496 24.3405 24.564 23.1885 25.236C22.0605 25.884 20.7165 26.208 19.1565 26.208C17.5965 26.208 16.2285 25.932 15.0525 25.38C13.8765 24.804 12.9645 24.012 12.3165 23.004C11.6685 21.972 11.3445 20.784 11.3445 19.44C11.3445 17.784 11.8365 16.32 12.8205 15.048C13.8285 13.752 15.2685 12.732 17.1405 11.988L16.8525 11.664C15.7485 10.464 14.9565 9.384 14.4765 8.424C13.9965 7.44 13.7565 6.432 13.7565 5.4C13.7565 3.768 14.2725 2.46 15.3045 1.476C16.3365 0.492 17.6925 0 19.3725 0C21.0045 0 22.3125 0.456 23.2965 1.368C24.3045 2.256 24.8085 3.444 24.8085 4.932C24.8085 6.276 24.3645 7.524 23.4765 8.676C22.6125 9.828 21.4365 10.788 19.9485 11.556L27.0045 19.224L29.5245 12.528H31.9725L27.5805 19.836L32.9805 25.704H29.7765ZM18.4725 9.972L19.4445 11.016C21.5085 9.648 22.5405 7.704 22.5405 5.184C22.5405 3.816 22.2525 2.76 21.6765 2.016C21.1245 1.248 20.3565 0.864 19.3725 0.864C18.3885 0.864 17.5605 1.236 16.8885 1.98C16.2405 2.7 15.9165 3.66 15.9165 4.86C15.9165 5.676 16.1205 6.492 16.5285 7.308C16.9365 8.1 17.5845 8.988 18.4725 9.972ZM13.6845 19.152C13.6845 21 14.2245 22.5 15.3045 23.652C16.4085 24.78 17.8365 25.344 19.5885 25.344C21.9885 25.344 24.0645 24.024 25.8165 21.384L17.6805 12.528C15.0165 13.944 13.6845 16.152 13.6845 19.152Z" fill="var(--fill-0, white)"></path>
<path d="M37.5261 23.472V0.504H39.9741V23.256C39.9741 26.28 39.5541 28.632 38.7141 30.312C37.8741 31.992 36.5901 33.216 34.8621 33.984L34.7541 33.804C35.7141 33.132 36.4101 31.992 36.8421 30.384C37.2981 28.8 37.5261 26.496 37.5261 23.472Z" fill="var(--fill-0, white)"></path>
</g>
</svg>